<svg xmlns="http://www.w3.org/2000/svg" viewBox="0 0 64 64" width="64" height="64">
  <!-- Rounded square background -->
  <rect width="64" height="64" rx="14" ry="14" fill="#2d5fa6"/>

  <!-- Spade ♠ (white, top-left area) -->
  <g transform="translate(10, 8) scale(0.72)">
    <path d="M24 2 C24 2 4 16 4 28 C4 36 10 40 18 38 C16 42 14 44 10 46 L38 46 C34 44 32 42 30 38 C38 40 44 36 44 28 C44 16 24 2 24 2Z"
          fill="white"/>
  </g>

  <!-- Heart ♥ (yellow, bottom-right area, overlapping slightly) -->
  <g transform="translate(30, 28) scale(0.62)">
    <path d="M24 44 C24 44 2 28 2 16 C2 8 8 2 16 4 C20 5 24 10 24 10 C24 10 28 5 32 4 C40 2 46 8 46 16 C46 28 24 44 24 44Z"
          fill="#ffd23f"/>
  </g>
</svg>
